{
  "accessors": [
    {
      "bufferView": 2,
      "componentType": 5126,
      "count": 5021,
      "max": [
        2099920.5,
        2404389.75,
        12665265.0
      ],
      "min": [
        -2040279.75,
        -2337552.75,
        -1341787.75
      ],
      "type": "VEC3"
    },
    {
      "bufferView": 2,
      "byteOffset": 60252,
      "componentType": 5126,
      "count": 5021,
      "max": [
        0.9999851584434509,
        0.9989244937896729,
        0.999925971031189
      ],
      "min": [
        -0.9999905824661255,
        -0.9999693036079407,
        -0.9976367950439453
      ],
      "type": "VEC3"
    },
    {
      "bufferView": 3,
      "componentType": 5126,
      "count": 5021,
      "max": [
        0.9998618364334106,
        0.9999985098838806,
        1.0,
        1.0
      ],
      "min": [
        -0.9998806118965149,
        -1.0,
        -1.0,
        -1.0
      ],
      "type": "VEC4"
    },
    {
      "bufferView": 1,
      "componentType": 5126,
      "count": 5021,
      "max": [
        2.6727099418640137,
        17.23345184326172
      ],
      "min": [
        -1.1062288284301758,
        -1.0302104949951172
      ],
      "type": "VEC2"
    },
    {
      "bufferView": 1,
      "byteOffset": 40168,
      "componentType": 5126,
      "count": 5021,
      "max": [
        1.0,
        0.9997888207435608
      ],
      "min": [
        0.0,
        4.235703727317741e-06
      ],
      "type": "VEC2"
    },
    {
      "bufferView": 1,
      "byteOffset": 80336,
      "componentType": 5126,
      "count": 5021,
      "max": [
        2.6727099418640137,
        17.23345184326172
      ],
      "min": [
        -1.1062288284301758,
        -1.0302104949951172
      ],
      "type": "VEC2"
    },
    {
      "bufferView": 0,
      "componentType": 5125,
      "count": 19968,
      "type": "SCALAR"
    },
    {
      "bufferView": 2,
      "byteOffset": 120504,
      "componentType": 5126,
      "count": 16441,
      "max": [
        2151576.25,
        2335060.25,
        12956566.0
      ],
      "min": [
        -2364383.0,
        -2536674.5,
        6013556.5
      ],
      "type": "VEC3"
    },
    {
      "bufferView": 2,
      "byteOffset": 317796,
      "componentType": 5126,
      "count": 16441,
      "max": [
        0.9996882677078247,
        0.9999862909317017,
        0.9995764493942261
      ],
      "min": [
        -0.999972403049469,
        -0.9997656345367432,
        -0.9994367361068726
      ],
      "type": "VEC3"
    },
    {
      "bufferView": 3,
      "byteOffset": 80336,
      "componentType": 5126,
      "count": 16441,
      "max": [
        1.0,
        1.0,
        1.0,
        1.0
      ],
      "min": [
        -1.0,
        -1.0,
        -1.0,
        -1.0
      ],
      "type": "VEC4"
    },
    {
      "bufferView": 1,
      "byteOffset": 120504,
      "componentType": 5126,
      "count": 16441,
      "max": [
        0.9998399019241333,
        1.0
      ],
      "min": [
        0.0,
        0.11286230385303497
      ],
      "type": "VEC2"
    },
    {
      "bufferView": 1,
      "byteOffset": 252032,
      "componentType": 5126,
      "count": 16441,
      "max": [
        0.0,
        0.9843131899833679
      ],
      "min": [
        0.0,
        0.9843131899833679
      ],
      "type": "VEC2"
    },
    {
      "bufferView": 1,
      "byteOffset": 383560,
      "componentType": 5126,
      "count": 16441,
      "max": [
        0.9998399019241333,
        1.0
      ],
      "min": [
        0.0,
        0.11286230385303497
      ],
      "type": "VEC2"
    },
    {
      "bufferView": 0,
      "byteOffset": 79872,
      "componentType": 5125,
      "count": 41583,
      "type": "SCALAR"
    }
  ],
  "asset": {
    "extras": {
      "author": "Georgeous (https://sketchfab.com/intice184)",
      "license": "CC-BY-4.0 (http://creativecommons.org/licenses/by/4.0/)",
      "source": "https://sketchfab.com/3d-models/pine-tree-6c0ca146235e49529828136cd0cee63a",
      "title": "Pine tree"
    },
    "generator": "Sketchfab-16.73.0",
    "version": "2.0"
  },
  "bufferViews": [
    {
      "buffer": 0,
      "byteLength": 246204,
      "name": "floatBufferViews",
      "target": 34963
    },
    {
      "buffer": 0,
      "byteLength": 515088,
      "byteOffset": 246204,
      "byteStride": 8,
      "name": "floatBufferViews",
      "target": 34962
    },
    {
      "buffer": 0,
      "byteLength": 515088,
      "byteOffset": 761292,
      "byteStride": 12,
      "name": "floatBufferViews",
      "target": 34962
    },
    {
      "buffer": 0,
      "byteLength": 343392,
      "byteOffset": 1276380,
      "byteStride": 16,
      "name": "floatBufferViews",
      "target": 34962
    }
  ],
  "buffers": [
    {
      "byteLength": 1619772,
      "uri": "scene.bin"
    }
  ],
  "images": [
    {
      "uri": "textures/M_Bark.003_baseColor.png"
    },
    {
      "uri": "textures/M_Bark.003_normal.png"
    },
    {
      "uri": "textures/M_Branch.003_baseColor.png"
    },
    {
      "uri": "textures/M_Branch.003_normal.png"
    }
  ],
  "materials": [
    {
      "doubleSided": true,
      "name": "M_Bark.003",
      "normalTexture": {
        "index": 1
      },
      "pbrMetallicRoughness": {
        "baseColorTexture": {
          "index": 0
        },
        "metallicFactor": 0.0
      }
    },
    {
      "alphaCutoff": 0.22400068266874718,
      "alphaMode": "MASK",
      "doubleSided": true,
      "name": "M_Branch.003",
      "normalTexture": {
        "index": 3
      },
      "pbrMetallicRoughness": {
        "baseColorTexture": {
          "index": 2
        },
        "metallicFactor": 0.0
      }
    }
  ],
  "meshes": [
    {
      "name": "Pine01_LOD0_M_Bark.003_0",
      "primitives": [
        {
          "attributes": {
            "NORMAL": 1,
            "POSITION": 0,
            "TANGENT": 2,
            "TEXCOORD_0": 3,
            "TEXCOORD_1": 4,
            "TEXCOORD_2": 5
          },
          "indices": 6,
          "material": 0,
          "mode": 4
        }
      ]
    },
    {
      "name": "Pine01_LOD0_M_Branch.003_0",
      "primitives": [
        {
          "attributes": {
            "NORMAL": 8,
            "POSITION": 7,
            "TANGENT": 9,
            "TEXCOORD_0": 10,
            "TEXCOORD_1": 11,
            "TEXCOORD_2": 12
          },
          "indices": 13,
          "material": 1,
          "mode": 4
        }
      ]
    }
  ],
  "nodes": [
    {
      "children": [
        1
      ],
      "matrix": [
        -1.0,
        2.832769343193999e-16,
        6.290011496532519e-32,
        0.0,
        0.0,
        2.220446049250313e-16,
        -1.0,
        0.0,
        -2.832769343193999e-16,
        -1.0,
        -2.220446049250313e-16,
        0.0,
        0.0,
        0.0,
        0.0,
        1.0
      ],
      "name": "Sketchfab_model"
    },
    {
      "children": [
        2
      ],
      "matrix": [
        0.009999999776482582,
        0.0,
        0.0,
        0.0,
        0.0,
        -0.009999999776482582,
        0.0,
        0.0,
        0.0,
        0.0,
        -0.009999999776482582,
        0.0,
        0.0,
        0.0,
        0.0,
        1.0
      ],
      "name": "SM_Pine01.fbx"
    },
    {
      "children": [
        3
      ],
      "name": "RootNode"
    },
    {
      "children": [
        4,
        5
      ],
      "matrix": [
        9.999999747378619e-05,
        -1.6292066661636882e-11,
        0.0,
        0.0,
        1.6292066661636882e-11,
        9.999999747378619e-05,
        0.0,
        0.0,
        0.0,
        0.0,
        9.999999747378752e-05,
        0.0,
        0.0,
        0.0,
        0.0,
        1.0
      ],
      "name": "Pine01_LOD0"
    },
    {
      "mesh": 0,
      "name": "Pine01_LOD0_M_Bark.003_0"
    },
    {
      "mesh": 1,
      "name": "Pine01_LOD0_M_Branch.003_0"
    }
  ],
  "samplers": [
    {
      "magFilter": 9729,
      "minFilter": 9987,
      "wrapS": 10497,
      "wrapT": 10497
    }
  ],
  "scene": 0,
  "scenes": [
    {
      "name": "Sketchfab_Scene",
      "nodes": [
        0
      ]
    }
  ],
  "textures": [
    {
      "sampler": 0,
      "source": 0
    },
    {
      "sampler": 0,
      "source": 1
    },
    {
      "sampler": 0,
      "source": 2
    },
    {
      "sampler": 0,
      "source": 3
    }
  ]
}
