{
	"asset":{
		"generator":"Khronos glTF Blender I/O v4.4.56",
		"version":"2.0"
	},
	"scene":0,
	"scenes":[
		{
			"name":"Scene",
			"nodes":[
				5
			]
		}
	],
	"nodes":[
		{
			"mesh":0,
			"name":"Plane.197_Material.003_0"
		},
		{
			"mesh":1,
			"name":"Plane.197_twig_0"
		},
		{
			"children":[
				0,
				1
			],
			"name":"Plane.197",
			"rotation":[
				-0.6371091604232788,
				-0.04474577307701111,
				-0.11979472637176514,
				0.7600914239883423
			],
			"scale":[
				111.33616638183594,
				111.33616638183594,
				111.336181640625
			],
			"translation":[
				0,
				0,
				5.9604644775390625e-06
			]
		},
		{
			"children":[
				2
			],
			"name":"RootNode"
		},
		{
			"children":[
				3
			],
			"name":"306efb0fa3a749b9949c2d453c8b1996.fbx",
			"rotation":[
				0.70710688829422,
				0,
				0,
				0.7071066498756409
			]
		},
		{
			"children":[
				4
			],
			"name":"Sketchfab_model",
			"rotation":[
				-0.70710688829422,
				0,
				0,
				0.7071066498756409
			]
		}
	],
	"materials":[
		{
			"alphaCutoff":0.5139100551605225,
			"alphaMode":"MASK",
			"doubleSided":true,
			"name":"Material.003",
			"normalTexture":{
				"index":0
			},
			"occlusionTexture":{
				"index":1
			},
			"pbrMetallicRoughness":{
				"baseColorTexture":{
					"index":2
				},
				"metallicFactor":0,
				"metallicRoughnessTexture":{
					"index":1
				}
			}
		},
		{
			"doubleSided":true,
			"name":"twig",
			"normalTexture":{
				"index":3
			},
			"pbrMetallicRoughness":{
				"baseColorTexture":{
					"index":4
				},
				"metallicFactor":0,
				"roughnessFactor":0.8614710569381714
			}
		}
	],
	"meshes":[
		{
			"name":"Plane.197_Material.003_0",
			"primitives":[
				{
					"attributes":{
						"POSITION":0,
						"NORMAL":1,
						"TEXCOORD_0":2
					},
					"indices":3,
					"material":0
				}
			]
		},
		{
			"name":"Plane.197_twig_0",
			"primitives":[
				{
					"attributes":{
						"POSITION":4,
						"NORMAL":5,
						"TEXCOORD_0":6,
						"TEXCOORD_1":7
					},
					"indices":8,
					"material":1
				}
			]
		}
	],
	"textures":[
		{
			"sampler":0,
			"source":0
		},
		{
			"sampler":0,
			"source":1
		},
		{
			"sampler":0,
			"source":2
		},
		{
			"sampler":0,
			"source":3
		},
		{
			"sampler":0,
			"source":4
		}
	],
	"images":[
		{
			"mimeType":"image/png",
			"name":"Material.003_normal",
			"uri":"textures/Material_003_normal.png"
		},
		{
			"mimeType":"image/png",
			"name":"Material.003_metallicRoughness",
			"uri":"textures/Material_003_metallicRoughness.png"
		},
		{
			"mimeType":"image/png",
			"name":"Material.003_baseColor",
			"uri":"textures/Material_003_baseColor.png"
		},
		{
			"mimeType":"image/png",
			"name":"twig_normal",
			"uri":"textures/twig_normal.png"
		},
		{
			"mimeType":"image/png",
			"name":"twig_baseColor",
			"uri":"textures/twig_baseColor.png"
		}
	],
	"accessors":[
		{
			"bufferView":0,
			"componentType":5126,
			"count":24000,
			"max":[
				5.400895595550537,
				7.487784385681152,
				18.686132431030273
			],
			"min":[
				-9.135818481445312,
				-5.771036148071289,
				2.366610050201416
			],
			"type":"VEC3"
		},
		{
			"bufferView":1,
			"componentType":5126,
			"count":24000,
			"type":"VEC3"
		},
		{
			"bufferView":2,
			"componentType":5126,
			"count":24000,
			"type":"VEC2"
		},
		{
			"bufferView":3,
			"componentType":5123,
			"count":66000,
			"type":"SCALAR"
		},
		{
			"bufferView":4,
			"componentType":5126,
			"count":5223,
			"max":[
				3.5715954303741455,
				6.172574520111084,
				17.163007736206055
			],
			"min":[
				-7.3418779373168945,
				-4.262322425842285,
				-0.06279468536376953
			],
			"type":"VEC3"
		},
		{
			"bufferView":5,
			"componentType":5126,
			"count":5223,
			"type":"VEC3"
		},
		{
			"bufferView":6,
			"componentType":5126,
			"count":5223,
			"type":"VEC2"
		},
		{
			"bufferView":7,
			"componentType":5126,
			"count":5223,
			"type":"VEC2"
		},
		{
			"bufferView":8,
			"componentType":5123,
			"count":16743,
			"type":"SCALAR"
		}
	],
	"bufferViews":[
		{
			"buffer":0,
			"byteLength":288000,
			"byteOffset":0,
			"target":34962
		},
		{
			"buffer":0,
			"byteLength":288000,
			"byteOffset":288000,
			"target":34962
		},
		{
			"buffer":0,
			"byteLength":192000,
			"byteOffset":576000,
			"target":34962
		},
		{
			"buffer":0,
			"byteLength":132000,
			"byteOffset":768000,
			"target":34963
		},
		{
			"buffer":0,
			"byteLength":62676,
			"byteOffset":900000,
			"target":34962
		},
		{
			"buffer":0,
			"byteLength":62676,
			"byteOffset":962676,
			"target":34962
		},
		{
			"buffer":0,
			"byteLength":41784,
			"byteOffset":1025352,
			"target":34962
		},
		{
			"buffer":0,
			"byteLength":41784,
			"byteOffset":1067136,
			"target":34962
		},
		{
			"buffer":0,
			"byteLength":33486,
			"byteOffset":1108920,
			"target":34963
		}
	],
	"samplers":[
		{
			"magFilter":9729,
			"minFilter":9987
		}
	],
	"buffers":[
		{
			"byteLength":1142408,
			"uri":"scene.bin"
		}
	]
}
